/* XPM */
static char *_56f29df7b844ca9bc1394113c9177e4OtRLcVZqrLEpixPY[] = {
/* columns rows colors chars-per-pixel */
"64 64 218 2 ",
"   c #060000",
".  c #0D0201",
"X  c #140401",
"o  c #1A0601",
"O  c #140904",
"+  c #1D0C02",
"@  c #1C0E09",
"#  c #160C0A",
"$  c #1D1206",
"%  c #1D130C",
"&  c #171008",
"*  c #1D1311",
"=  c #220E02",
"-  c #240E0A",
";  c #241205",
":  c #2A1404",
">  c #2C1805",
",  c #24140B",
"<  c #2B160B",
"1  c #25190D",
"2  c #2D1A0C",
"3  c #311705",
"4  c #311A07",
"5  c #331C0D",
"6  c #391E0F",
"7  c #31170A",
"8  c #241611",
"9  c #2A1711",
"0  c #261912",
"q  c #2C1B12",
"w  c #2D1D19",
"e  c #231918",
"r  c #321E13",
"t  c #3A1F11",
"y  c #321E19",
"u  c #35210D",
"i  c #3A220D",
"p  c #2E2115",
"a  c #2D211A",
"s  c #352214",
"d  c #3A2314",
"f  c #3D2915",
"g  c #35241A",
"h  c #3A261A",
"j  c #35291D",
"k  c #3C2A1C",
"l  c #342522",
"z  c #3A2723",
"x  c #372A22",
"c  c #3C2B22",
"v  c #3C2F29",
"b  c #3E3125",
"n  c #3D342B",
"m  c #402615",
"M  c #432A15",
"N  c #432C1B",
"B  c #492E1A",
"V  c #452A17",
"C  c #45321E",
"Z  c #4B321D",
"A  c #51361F",
"S  c #432E23",
"D  c #492F21",
"F  c #432E28",
"G  c #433124",
"H  c #4B3423",
"J  c #4E3924",
"K  c #45332A",
"L  c #4C362B",
"P  c #453929",
"I  c #4D3A2C",
"U  c #513624",
"Y  c #533A25",
"T  c #513528",
"R  c #533C2C",
"E  c #593E2A",
"W  c #5B3D23",
"Q  c #4A3731",
"!  c #453832",
"~  c #4D3B32",
"^  c #433630",
"/  c #543E32",
"(  c #593F31",
")  c #503E3A",
"_  c #56412C",
"`  c #5B422D",
"'  c #4E4235",
"]  c #554234",
"[  c #5B4434",
"{  c #5E4934",
"}  c #55443A",
"|  c #5C453A",
" . c #564A3B",
".. c #5D4A3B",
"X. c #60412D",
"o. c #67492F",
"O. c #614633",
"+. c #634B35",
"@. c #684D37",
"#. c #614639",
"$. c #644B3B",
"%. c #694E3C",
"&. c #66513C",
"*. c #6C533D",
"=. c #71533B",
"-. c #4F4A47",
";. c #534B46",
":. c #5C4B43",
">. c #534C4A",
",. c #594E48",
"<. c #504742",
"1. c #5E5142",
"2. c #5C534D",
"3. c #56514E",
"4. c #595451",
"5. c #634D41",
"6. c #694E41",
"7. c #684F48",
"8. c #655141",
"9. c #6B5443",
"0. c #6E5945",
"q. c #64564D",
"w. c #6A564C",
"e. c #65584F",
"r. c #6F5848",
"t. c #715743",
"y. c #745B45",
"u. c #795D45",
"i. c #705649",
"p. c #745C4A",
"a. c #795E4B",
"s. c #625650",
"d. c #665A53",
"f. c #6A5D54",
"g. c #6A5F5A",
"h. c #755E51",
"j. c #795F50",
"k. c #76604D",
"l. c #7B624D",
"z. c #6C625D",
"x. c #69645C",
"c. c #766253",
"v. c #7C6452",
"b. c #7E6954",
"n. c #7E6B5B",
"m. c #7E6759",
"M. c #7F705D",
"N. c #686763",
"B. c #80654D",
"V. c #83694E",
"C. c #816752",
"Z. c #846B55",
"A. c #896C53",
"S. c #816759",
"D. c #846C5A",
"F. c #896E5B",
"G. c #8C7056",
"H. c #86715C",
"J. c #8C735C",
"K. c #91755D",
"L. c #94795E",
"P. c #917357",
"I. c #826C61",
"U. c #857462",
"Y. c #8D7462",
"T. c #8D7963",
"R. c #8C7869",
"E. c #917761",
"W. c #947B64",
"Q. c #997E66",
"!. c #947C6A",
"~. c #997E6A",
"^. c #947E71",
"/. c #9C8066",
"(. c #96816B",
"). c #9B826B",
"_. c #9C8472",
"`. c #988472",
"'. c #A0886E",
"]. c #A28A74",
"[. c #A48D7D",
"{. c #A08773",
"}. c #D7C2BD",
"|. c #C4C1B8",
" X c #DBCDC9",
".X c #DDD2C6",
"XX c #DCD2CB",
"oX c #D5D1C6",
"OX c #DED5D3",
"+X c #C9C5C2",
"@X c #E0CEC5",
"#X c #E6D5CB",
"$X c #E6D6CE",
"%X c #E3D3CC",
"&X c #E8D7CD",
"*X c #EAD7CE",
"=X c #EAD6CA",
"-X c #E4D8CD",
";X c #EAD8CE",
":X c #E7D3C6",
">X c #E2D5D1",
",X c #E8D7D0",
"<X c #E4DAD3",
"1X c #EADCD3",
"2X c #E4DAD8",
"3X c #EADDD9",
"4X c #F1DDD8",
"5X c #EFE3D7",
"6X c #E5E5DE",
"7X c #EDE6DC",
"8X c #EEEDED",
"9X c #F8F4ED",
"0X c #F5F6F3",
"qX c #FFFFF5",
"wX c #FFFCF5",
"eX c #FFFFFD",
"rX c #FFFEFA",
"tX c #F6F7FB",
/* pixels */
"eX6XXX<X%X&X@X3X%X>XXX>X1X1X:X=X&X#X%X#X$X;X;X;X;X&X#X#X&X&X&X#X&X=X#X=X&X;X;X&X3X,X&X$X$X$X$X$X X*X%X@X&X-X%X,X4X}.$X,X>XoX6XwX",
"eXN.% a + < q o 9 w l l y y r s k c c c c c k h c c F F G G G G F F S c c k k k h c c c c x g g S S g q g g q w , q q , w # x.wX",
"rXx.  0 , < g + + @ 8 0 , , 5 5 < 2 2 q r q q q < q r y r q r y r r r r 2 2 q r , < q q q 9 9 9 < < = o + ; + + X - + + %   x.wX",
"eX+X! , < = < g F z x l y g h 5 d g g g g g h h y g g g g g g h h d d s d g h h k k h k z c c c h S c g y p g h z y < 9 % n |.wX",
"tXwX<.. , q k K ~ ) } } } | | [ | | ..| [ ] / / [ | | | | | ..5.| [ / R / / / R [ / R I / / ~ ~ I R R K c j c c c h q 9 X 2.wXwX",
"eXrX2., 9 2 I k F } :.:.:...| $./ [ | ..| [ [ ] [ [ | | $...| | [ [ ( / / / / R / I L L H S F k N h h k k b K c c } y q 0 2.wXwX",
"rXwX<.% + = 5./ g K g 9 k h > t t r 5 2 : : 7 r t d d h h d 2 = : 5 d m d t 5 5 d r 5 2 = = < r d 5 s s 2 s F c ~ w., = w 2.rXrX",
"tXrX,.0 q ; | K F L 9 , } r.#.9.%.[ H t 7 5 N T 5.$.$.%.$.[ S t D E $.%.[ T H L L L S d 5 d H | #...5.R 2 2 c K S 7.< , q ;.rX9X",
"rXwXs.+ < 2 [ / h Q w ; c.H.l.C.v.v.[ H 5 m [ i.S._.v.v.!.9.#.t ( 9.v.~.C.[ i.v.S.i.| V 5 N [ m.h.S.!.n.: q ~ K K K , , , 2.rXwX",
"rXwXs.o < 2 [ / h Q q ; c.Y.a.l.v.j.E D 5 V #.a.v.!.v.S.!.9.[ d Y y.C.!.C.[ 9.v.a.5.[ B d B [ c.a.v._.D.; 2 ] / S S - , , s.rXrX",
"rXwXs.o < 2 [ / c I < ; c.T.a.a.l.a.R Z 6 H 9.S.D.!.v.D.!.$.E 6 U y.l.J.v.` %.v.v.%._ h 5 B ..S.F.D._.D.; < ] L S F - - , d.rXrX",
"rXwXs.o < 2 [ / S ~ < ; k.T.l.C.Z.v.E H d U 0.S.!.!.v.F.!.%.E m E u.a.G.F.+.9.J.J.y.[ V d H 9.R.~.F._.U.: 2 | R S L - - 9 d.rXrX",
"rXwXs.+ < 2 | / S ] 2 : i.E.l.J.W.D.` H f R y.H.(.J.v.D.W.&._ d H *.u.E.J.` *.W.Y.p.[ M d H &.H.Y.Z.!.H.: < ] ..L / 9 - w g.rXwX",
"rXwXd., 5 5 | / S } < : 0.W.Z.W.).J.` H M [ b.(.].W.Y.W.~.0.` i Z t.F.].W.+.y.(._.b.$.B f R 0.T.W.W.[.!.2 ; I 8./ 5.y - y g.wXwX",
"rXrXf., r r #./ G [ < < 0.(.V.L.).H.` Z f Y *.l.J.Z.Z.b.Z.&.` f J &.u.J.v.{ 0.b.J.y.{ C N _ &.Z.J.F.W.D.d > P 5.( 7.y - y z.wXwX",
"rXrXg., s r #./ H [ ; < 0.).B.J.).J.` H u u d f C d f f N u d > 4 i > f d u N u N s f u 5 u 2 d N d d f + ; s H [ w.r = y z.wXrX",
"rXrXs.q r r [ [ G ] 2 ; a.W.A.K.).Z.C N k c k c k s s C 5 f d 5 s d d s 5 r s s > s r 2 r s r s s h s ; 1 ; = S $.$.d ; g f.rXrX",
"rXrXs.q r r [ ] H / 2 : a.Q.A.P._.l.d s g c g g j s s C s d d r s g h g s s 5 2 s k s q s g q r 2 2 , ; p 9 , h $.$.d : g f.rXeX",
"rXrXd.w s r ( / L / : : p.Q.A.G.).l.d u y h g k 2 < < f 5 d h d d d d h h g 5 2 s h s s k k h g h g q s c g r d #.$.d : g f.rXrX",
"rXrXd.p s r ( / T R : : p.W.A.G.).J.Y f < ; ; < : = = : : : : : : ; : > 5 : : < ; > 2 ; : < 2 5 : > ; p , , q h #.$.t : h g.wXrX",
"wXwXg.g s r [ / / I ; 2 p.~.G.G./.J.` H f N L ] $.{ { { | H d 7 h f H [ [ H H E [ $.] N r r N / [ ..] ] , o s L #.$.d : h f.wXwX",
"wXrXg.g d s [ [ [ L ; 2 p.~.G.G.W.Z.Y U ( i.I.!._.)._.).{.v.[ N | $.v.(.~.b.l.D._._.Y.8.T T i.R.].].T.U.d ; L 5.#.$.d : h f.wXwX",
"wXwXf.g d d #.| | I , 5 a.).E.G.W.V.A Z T 9.S.R.W.E.W.E._.a.T 5 E ` y.W.!.l.t.l.W.~.F.+.B Z 6.Y.W.T.k.n.2 ; / 6.#.$.d : h f.wXwX",
"wXwXz.g d d #.$.$.I , 5 a.).E.G.A.B.Y Y R 0.F._.).W.J.F.).p.U 6 O.` *.J.E.a.*.l.J.~.J.*.U H $.Z.).J.0.b.5 : E [ #.$.d : h f.wXwX",
"wXwXd.G 5 5 $.| 5./ < : v.~.W.A.W.V.Y B U p.Y.Y.).W.Q.l.~.i.H t ` E @.Q.J.*.C.y.C.).E.@.Z Z +.F.).J.` v.s < H $.[ 6.t : h f.wXwX",
"wXwXd.G 5 5 $.| [ / ; 2 D.(.).).).G.Y B H p.Y.E.).W.Q.u.E.9.D 6 ` E @.W.G.*.l.t.l.W.J.@.H Z +.Z./.G.` v.s < G $.#.6.d : h d.wXwX",
"wXwXe.G 5 6 $.[ 9.| < s R.!.J.W.).G.Y N H p.Y.J.~.Q.Q.y.C.%.D 5 ` E +.E.G.t.a.t.y.J.J.%.H Z +.C./.G.E a.s ; G 5.$.#.d : g g.wXwX",
"wXwXe.G r t $.[ | L o s !._.E._.(.F.U N U a.Y.F.Q.)./.y.a.%.S > ` _ +.J.F.u.y.t.y.G.J.@.Z Z %.C./.G.E 0.h ; F 5.] I r ; g f.rXrX",
"wXwXw.G 5 i $.[ $./ = G R.!.J._.).H.Y V H p.Y.F.W.).).u.t.$.S 2 _ _ +.J.D.l.t.t.v.J.D.+.N Z &.C./.G.` 9.h ; K :.~ k < ; y g.rXrX",
"wXwXw.G d d #.[ [ L ; g R B M ` _.T.E M N 0.F.F.W.).).l.&.[ S 2 E ` { J.H.Z.*.y.D.D.v.` d B 9.v.Q.L.` ..k , K :.~ g , - q f.rXwX",
"wXwXw.G s d $.( ..I q c N d i J (.T._ V V 9.C.v.)./.).l.#./ c r _ ` { J.H.J.9.k.D.b.i.Y 7 N &.l.Q.W.[ ] g , n } ~ y , , q x.wXrX",
"wXwXw.G d d $.( 5.K ; h s r 4 d U.M.] G N %.a.y.).Q.W.v.[ I c y _ ` { J.G.T.9.l.Z.l.9.H : V 9.a.W.W.{ I s , K } / q < , a z.rXrX",
"wXwXw.G d d $.[ :.Q g < g k 5 2 p ' 1.j h | +.t.~.~.).D.] I s h E R { J.!.H.H.Z.Z.k.$.d 5 G [ c.W.Q.%.R s + I ] I h = ; g d.rXrX",
"wXwXw.G r d $.[ / y + , g s 2 h j 0 x j h _ %.u.E.W.).H.{ / s s [ ` #.D.(.T.T.W.D.y.{ f 5 G | p.E.).&.R s + L / / H < ; g g.rXrX",
"wXwXw.G r d $.[ / q X , c h s h n 1 j P C R &.u.J.E.~.T.8.] d 5 [ [ [ C._.E.J.(.T.9.[ N 5 G | r.T.).0.R 5 = L / | R r ; p g.rXrX",
"wXwXw.S r d 5.[ | F + - k S h 5 , p b G C ` u.C.J.E.W.W.i...h 2 R ` E l.].E.F.E.~.*._ H 7 H | 0.J.).k.R 2 ; L / | ] s = 9 g.rXwX",
"wXwXw.c r d %.( | L , , s 2 5 > k ..] k J +.u.G.K.W.E.~.l.%.B > E O.` l.].Q.J.E.).t.E H 4 H | 9.J.).v._ 2 ; L ] | [ d + 1 g.rXwX",
"wXwXw.k 5 h 5./ [ K - g h = : u H.`.&.C [ @.t.K.W.W.G.Q.C.&.H 5 E O.` u.~.).W.E.W.l.` Z : H [ i.E.).D.[ 2 ; G ..| ] d = 0 f.rXrX",
"wXwXq.k 5 h 6./ | F + K 5.R _ E U.T.] M _ &.B.K.L.L.Z.Q.Z.9.E i R X.` y.K.Q.Q.Z.W.A.+.Z : U ` l.W.).H...r ; G $.| / s = 9 d.rXrX",
"wXwXq.h 5 h 6./ | F + / ^.[._.l.J.T.&.Z Y *.G.Z.P.P.B.Q.F.t.` i Y X.+.u.P.).Q.u.W.K.&.A 3 Y [ C.~.).J.$.s ; S 8.$.E s ; 9 q.wXrX",
"wXwXd.g 7 m $.[ [ G + ~ ^.!.W.y.b.T.` Z _ *.u.G.K.A.C.K.W.l.E B E ` @.A.Q.Q.W.l.K.W.*.Y d U +.G.).W.T.$.d ; L ..| [ s = , s.rXrX",
"wXwXd.g 7 m $.[ / L o ] _.~.G.y.u.J.+.Z ` y.l.G.W.A.B.G.E.l.` H E E @.Z.~.).W.u.J./.t.Z i H %.~.).E.!.&.h = G ] [ [ s = , q.rXrX",
"wXwXd.s 7 V $.| / L X | _.).B.y.*.J.@.Z Y t.l.J.E.B.t.l.J.v.+.R E E +.Z.~.).J.*.C.).l.Y M U 6._.K.C.!.8.k + L ] / [ s = , 2.rXrX",
"rXwXd.s 5 N $.| R I X 5._.~.u.y.@.G.+.M Y u.F.W.W.v.*.9.v.a.[ Y E E O.C.~.).E.t.l.).Z.Y N H 9._.F.l.~.w.k o K / R ] s = , 2.rXrX",
"rXwXe.s 5 N $.[ R L o 9._.!.u.=.+.G.+.Z Y y.C.E.].T.a.a.v.a.{ E E ` +.Z.).].).Z.C.).Z.T H R h.[.E.G.].c.L = G ] L / s = , 2.rXrX",
"wXwXe.s 5 V $.( / H = 9.!.Y.u.+.+.F.+.Z Z ` [ &.l.9.[ [ #.[ H H B H H $.y.y.u.+.Y %.$.C G G | a.@.&.k.$.N ; k ] H E s ; , ,.rXrX",
"wXwXe.s 5 V #.R / N ; %.F.Z.l.W +.C.` M f N d V d d 5 5 d s 7 4 5 5 3 i u 5 d > : : d 5 s : s 5 : i 5 u ; + ; G S R d ; , ,.rXrX",
"wXwXw.g 5 V | T / h < | S.l.l.A +.l.Y d i f u V h f f f N f d h N V h V d u N d C 2 d s d 2 k s d C 7 s 2 , + S S R d , , ,.rXwX",
"rXrXq.s < N 5.H | c + ..n.y.l.Z +.9.4 : V 2 s h d 2 2 h h h h 5 s g k s k s 2 2 g s s g g s 2 < ; r 2 ; 1 $ + G K c y , @ ;.wXwX",
"rXrXq.p < N $.H ] c + ..m.9.a.Z { n.] s d 5 d s > 2 2 s y r h g g g g < g < 2 2 s g h g s s > = + , + + q 1 , G K c y , @ ;.wXwX",
"wXwXq.q < N ..L ] k + ..p.$.*.Z [ D.$.u > : > = : > = : < : 2 + + ; = ; s : 5 > = : > ; = 2 5 = = r q 1 , O + g K k y , @ ;.rXrX",
"wXwXq.2 < S [ I [ k = ..i.%.@.B &.v.+.J [ #.%.[ v.k.E [ w.8.| d f J R &.D.0.b.0.R ..8.J C $.c.9.I h.I.f.P ; g ..G h q , @ ;.rXrX",
"wXwXw.2 > B E R ..k + ..p.9.+.M O.*.` B ` 0.a.&.W.R.#.%.S.v.%.5 M [ [ v._.Z.).H.| a.Z.+.Z &.D.p.L D.`.R.I o g ..G k q , # ;.rXrX",
"rXwXe., 5 H T / 5.h + 8.k.a.+.M @.C.t.Z H t.y.` l.J.[ +.v.l.%.i M +.E k.W.y.~.F.Y 0.D.%.B +.l.%.T S._.!.] ; k [ G k q - O <.rXrX",
"rXwXd., 5 H H [ $.h + 8.c.l.O.M A @.+.B U y.y.` *.Z.E ` l.a.t.M M @.Y u.G.@.W.F.Z &.Z.&.B @.C.+.H a.J.H._ ; N R G h q - O <.rXeX",
"rXwXe.; 5 H H [ $.d + w.k.l.` B Z Z U Z ` y.*.E *.Z.Y Y l.l.t.m i +.Z y.G.+.W.Z.Y @.l.+.M +.l.O.N 9.v.b.J ; C ] S h q - O <.eXeX",
"rX9Xd., 2 H D [ 5.k o 5.c.l.Y Z B Z Y Z E 9.%.` E &.H E l.v.&.Z 5 ` ` @.l.@.l.H.Y ` C.*.M %.F.` U ` Z.S.P + G I H g 9 o @ 2.tXeX",
"rXwXg.< : d N $.[ h + ..p.a.Y B Z H T C R 0.%.E [ [ H [ a.k.&._ C _ H { C.@.y.y.` { y.[ Z %.*.E R #.i.8.H ; k | L g q @ O -.tXeX",
"wXrX,., r d S | :.K < | w.w.E U f N H d d R R R [ N H _ ..{ I J B _ E ` y.{ i.k.Y H +.H C _ N H D R I N h + g ] ] h g 0 # >.0XtX",
"eXrX<.X ; r I :.:.c + K ~ L B H h K ] k 2 k I 5.[ h I ] I ] I ] N [ [ I ] R 0.p.J f ..R H I d R L R I S k $ c ] } c w @ . 4.eXeX",
"8XrX2.@ , g / | :.c 8 Q ~ S S [ y F / c 9 g G } G q P I c ] ] ] ] [ { ] ..I ..$.I : I ] G P s h / K K c 1 X c b K c c 8 O 3.rX0X",
"eXrX<.X + h K c Q a 8 ^ Q g f I y g K c c b c b c p K G g P ' P G j I  .} s j ] } ; G I K ' g 2 K g v j & X n v g c l O . >.tXeX",
"eX8X>.* , K Q Q v l a n K g k S g l v v v n x x v v b b j j K j j g }  .' s b  .~ g c G I I j p x g l j a % n n ~ ! l @ e 4.0XeX",
"tXeXOX2X%X,X%X,X3X3X>X>X%X@X=X@X,X>X2XOXXX2X<X3X-X<XXX1X-X.X1X.X.X.X5X%X-X-X1X-X.X5X-X-X5X1X.X1X%X3X2X<X7XoXXX<X%X$XXX>X2XoXeX0X"
};
