/* XPM */
static char *af4f1bb6c4324f60ad0a6c52b8a907a443dXLmQ6x2O6dic5[] = {
/* columns rows colors chars-per-pixel */
"64 64 256 2 ",
"   c black",
".  c #010101",
"X  c #020202",
"o  c gray1",
"O  c #040404",
"+  c gray2",
"@  c #060606",
"#  c #070707",
"$  c gray3",
"%  c #090909",
"&  c gray4",
"*  c #0B0B0B",
"=  c #0C0C0C",
"-  c gray5",
";  c #0E0E0E",
":  c gray6",
">  c #101010",
",  c #111111",
"<  c gray7",
"1  c #131313",
"2  c gray8",
"3  c #151515",
"4  c #161616",
"5  c gray9",
"6  c #181818",
"7  c #191919",
"8  c gray10",
"9  c #1B1B1B",
"0  c gray11",
"q  c #1D1D1D",
"w  c #1E1E1E",
"e  c gray12",
"r  c #202020",
"t  c gray13",
"y  c #222222",
"u  c #232323",
"i  c gray14",
"p  c #252525",
"a  c gray15",
"s  c #272727",
"d  c #282828",
"f  c gray16",
"g  c #2A2A2A",
"h  c gray17",
"j  c #2C2C2C",
"k  c #2D2D2D",
"l  c gray18",
"z  c #2F2F2F",
"x  c gray19",
"c  c #313131",
"v  c #323232",
"b  c gray20",
"n  c #343434",
"m  c #353535",
"M  c gray21",
"N  c #373737",
"B  c gray22",
"V  c #393939",
"C  c #3A3A3A",
"Z  c gray23",
"A  c #3C3C3C",
"S  c gray24",
"D  c #3E3E3E",
"F  c #3F3F3F",
"G  c gray25",
"H  c #414141",
"J  c gray26",
"K  c #434343",
"L  c #444444",
"P  c gray27",
"I  c #464646",
"U  c gray28",
"Y  c #484848",
"T  c #494949",
"R  c gray29",
"E  c #4B4B4B",
"W  c #4C4C4C",
"Q  c gray30",
"!  c #4E4E4E",
"~  c gray31",
"^  c #505050",
"/  c #515151",
"(  c gray32",
")  c #535353",
"_  c gray33",
"`  c #555555",
"'  c #565656",
"]  c gray34",
"[  c #585858",
"{  c gray35",
"}  c #5A5A5A",
"|  c #5B5B5B",
" . c gray36",
".. c #5D5D5D",
"X. c gray37",
"o. c #5F5F5F",
"O. c #606060",
"+. c gray38",
"@. c #626262",
"#. c gray39",
"$. c #646464",
"%. c #656565",
"&. c gray40",
"*. c #676767",
"=. c #686868",
"-. c DimGray",
";. c #6A6A6A",
":. c gray42",
">. c #6C6C6C",
",. c #6D6D6D",
"<. c gray43",
"1. c #6F6F6F",
"2. c gray44",
"3. c #717171",
"4. c #727272",
"5. c gray45",
"6. c #747474",
"7. c gray46",
"8. c #767676",
"9. c #777777",
"0. c gray47",
"q. c #797979",
"w. c gray48",
"e. c #7B7B7B",
"r. c #7C7C7C",
"t. c gray49",
"y. c #7E7E7E",
"u. c gray50",
"i. c #808080",
"p. c #818181",
"a. c gray51",
"s. c #838383",
"d. c #848484",
"f. c gray52",
"g. c #868686",
"h. c gray53",
"j. c #888888",
"k. c #898989",
"l. c gray54",
"z. c #8B8B8B",
"x. c gray55",
"c. c #8D8D8D",
"v. c #8E8E8E",
"b. c gray56",
"n. c #909090",
"m. c gray57",
"M. c #929292",
"N. c #939393",
"B. c gray58",
"V. c #959595",
"C. c gray59",
"Z. c #979797",
"A. c #989898",
"S. c gray60",
"D. c #9A9A9A",
"F. c #9B9B9B",
"G. c gray61",
"H. c #9D9D9D",
"J. c gray62",
"K. c #9F9F9F",
"L. c #A0A0A0",
"P. c gray63",
"I. c #A2A2A2",
"U. c gray64",
"Y. c #A4A4A4",
"T. c #A5A5A5",
"R. c gray65",
"E. c #A7A7A7",
"W. c gray66",
"Q. c #A9A9A9",
"!. c #AAAAAA",
"~. c gray67",
"^. c #ACACAC",
"/. c gray68",
"(. c #AEAEAE",
"). c #AFAFAF",
"_. c gray69",
"`. c #B1B1B1",
"'. c #B2B2B2",
"]. c gray70",
"[. c #B4B4B4",
"{. c gray71",
"}. c #B6B6B6",
"|. c #B7B7B7",
" X c gray72",
".X c #B9B9B9",
"XX c gray73",
"oX c #BBBBBB",
"OX c #BCBCBC",
"+X c gray74",
"@X c gray",
"#X c gray75",
"$X c #C0C0C0",
"%X c #C1C1C1",
"&X c gray76",
"*X c #C3C3C3",
"=X c gray77",
"-X c #C5C5C5",
";X c #C6C6C6",
":X c gray78",
">X c #C8C8C8",
",X c gray79",
"<X c #CACACA",
"1X c #CBCBCB",
"2X c gray80",
"3X c #CDCDCD",
"4X c #CECECE",
"5X c gray81",
"6X c #D0D0D0",
"7X c gray82",
"8X c #D2D2D2",
"9X c LightGray",
"0X c gray83",
"qX c #D5D5D5",
"wX c gray84",
"eX c #D7D7D7",
"rX c #D8D8D8",
"tX c gray85",
"yX c #DADADA",
"uX c gray86",
"iX c gainsboro",
"pX c #DDDDDD",
"aX c gray87",
"sX c #DFDFDF",
"dX c gray88",
"fX c #E1E1E1",
"gX c #E2E2E2",
"hX c gray89",
"jX c #E4E4E4",
"kX c gray90",
"lX c #E6E6E6",
"zX c #E7E7E7",
"xX c gray91",
"cX c #E9E9E9",
"vX c #EAEAEA",
"bX c gray92",
"nX c #ECECEC",
"mX c gray93",
"MX c #EEEEEE",
"NX c #EFEFEF",
"BX c gray94",
"VX c #F1F1F1",
"CX c gray95",
"ZX c #F3F3F3",
"AX c #F4F4F4",
"SX c gray96",
"DX c #F6F6F6",
"FX c gray97",
"GX c #F8F8F8",
"HX c #F9F9F9",
"JX c gray98",
"KX c #FBFBFB",
"LX c gray99",
"PX c #FDFDFD",
"IX c #FEFEFE",
"UX c white",
/* pixels */
"u u u u u u u u u u u u u u u u w y s s i t t u q h y q c b x G Z k m s 0 f y d y i p i u i i i u u u u u u u u u u u u u u u u ",
"u u u u u u u u u u u u u u u u d u w w y a s a e y 8 C G.>XOX(.'.[.XX$.u t 0 9 y t r r y p p p u u u u u u u u u u u u u u u u ",
"u u u u u u u u u u u u u u u u p u t y u u t w u g s H W.,X-X-X=X>XiX*.y a h g a y e r u i p p u u u u u u u u u u u u u u u u ",
"u u u u u u u u u u u u u u u u w u s a y r y p i 9 ; k I.&X@X%X-X X,X( 8 8 w u d p i i i y y i u u u u u u u u u u u u u u u u ",
"u u u u u u u u u u u u u u u u u u y t r u d j w N B L S.+XoX}.oX`..X_ D D k q u y p s i e r p u u u u u u u u u u u u u u u u ",
"u u u u u u u u u u u u u u u u i r w y s a q 3 N F.%XL.Z.].OXXX{.+X}.a.W.'.1.a t w t p i e t s u u u u u u u u u u u u u u u u ",
"u u u u u u u u u u u u u u u u r t u p a i r q Z K.=X~.z. X#X].'.#XZ.a.@XoX@., k u w y p y y p u u u u u u u u u u u u u u u u ",
"u u u u u u u u u u u u u u u u t a s r 7 i D ' O.P.'.!.p._. X{.`.=Xl.p.].!.y.,.D h w y d a y y u u u u u u u u u u u u u u u u ",
"u u u u u u u u i p t q t y e y y d t 5 m r.'.OXT.a.&XY.u.~.<X_. X@X8.c.(.m.l.@X%XN.) i 7 t p r 8 d t 6 i d t i u u u u u u u u ",
"u u u u u u u u 7 r t l p 0 k u s 6 q } Q.&X{.].I.6.!.}.f.a.Q.-X|.T.9.l.~.0.a.^.~.,X@Xw.V p p t u t t j r 6 a e u u u u u u u u ",
"u u u u u u u u h w r r 9 s j 9 3 B p.`.(.).[.E.S.9.B.$XG.w.6.9.3.1.a.B./.8.b.Z.).U.`.=XJ.Q w r h i 9 g f u g 6 u u u u u u u u ",
"u u u u u u u u i 6 k 8 0 l 4 r { P.#X`._.~.L.T.U.h.w.].'.P.b.y.k.u.P.Q.F.2.G.Y.A././.Y..X-Xh.l 7 t a w w t r k u u u u u u u u ",
"u u u u u u u u r i u y d w n u.*X~.(.].R.~._.F.L.k.1.Q.[.T.T.W.~.M.U.].g.>.n.I.!.R.Y.!.{..X'.R.( 7 a p 9 d q a u u u u u u u u ",
"u u u u u u u u f k 1 ` 1.G r.2X'.].U.L.!.H.C.(.~.H.p.S.!.).[.W.W.~.^.Q.q.N.T.P.J.U.R.Y.K.I.].-X'.H } 1.N a t 9 u u u u u u u u ",
"u u u u u u u u r q D E.:XV.N.J.Q.Y.!.Q.K.E.(.I.E.j.%.@.h.R.{.P.U.[.U.u.Q e.S.E.P.U.Y.T.!./.Q.I.!.x.'.-X=.7 r k u u u u u u u u ",
"u u u u u u u u f 4 e.+X-X@Xd.,.J.I.P.L.U.I.Y.!.[ r 3 g ! Y E T K T Q L < : v 9.U.~.Q.P.I.R.F.k.0.).].1XW.G y w u u u u u u u u ",
"f e t t a i 9 d 6 _ ~.@X/.+X XV.w.z.~.A.D.&X1.V n M >.;.I C / q A ! C _ 6.n A 6 R C.`.C.U.W.q.w. X`.#X~.*XV.2 u w d r e i y u t ",
"y w g i w d a u d d..X@X[.[.@X).N.-.a.$XC.J x { =.' j.h.w.,.u.S >.g.6.p.m.) 6.-.s Z 8.(.T.q.r.~.|.).`._.=X'.' 0 f a q y d t t i ",
"r e j u 0 f i 7 { XX+X'.].I._._._.C.s. .n b o.7.r.{ n.j.b.e.v.I 8.N.p.g.x./ d.z.,.D d ~ p.m.!.&X'.).E.`.].oXV.r r t u i i y y p ",
"i y u e p y 7 l F.3X}.!.|.Q.~.(.}.~.A.d g 3.y.u.e.` S.s.b.6.v.E 7.v.w.a.x./ s.j.h.s.Y 7 <.{.}.'.R.!.!.[.W.@X:X&.4 w h y 9 p p u ",
"i d 0 0 x 9 r 6.#X X^.W._._.Q./.~.^.Z.C ] s.4.d.u.` J.t.v.8.b.E t.V.i.l.V.[ j.c.i.b.7.k 2.].Q.Q.~.~.(.(.P.].-XY.m e p u w a t u ",
"r f r e x 8 v R.2X[. X{.^.!.U.E.Q. X4.f ` f.l.k.d._ Z.5.x.a.m.K r.V.a.k.b.^ d.n.A.s.6.N { B.'.`.`.!.^.~./. X+X$X@.r 8 a s p 8 a ",
"u i i y f r b e.~._.]. X].^.).~.^.j.T S $.h.h.x.k. .G.7.c.N.D.U i.C.a.z.N.) h.M.s.M.a./ ` +.E.'.!.!.^._.[.|.].R.{ 0 r s u a 9 a ",
"h w i y t a u h ] i.t.N.W.R.}.!.R.] R ' @.j.2.v.u.| H.5.s.M.S.R d.B.r.z.G.X.k.z.q.T.4.] 4.Y c.!.`.XX`.W.v.0.-.B j 3 x a 4 d u i ",
"t a e i t s 8 i y.T.7.;.-.3.j.F.>.G o.O.o.n.V.d.d...B.r.h.a.N.R i.N.7.b.M.| j.F.w.Z.i./ v.] Q h.v.e.&.} ..8.M.c 8 h q r a t d r ",
"t p e i t a 9 k G.|.D.B.z.t.4.) N ! t.=.+.g.z.F.k.#.Z.r.k.j.D.~ a.V.9.c.N...g.m.w.G.i.' g.+.Z W -.4.r.c.S.E.[.` 9 f w t p r s r ",
"y i r i t a q S T.E.J.K.P.K.N.Q x -.x.#.>.v.i.A.j.@.B.8.f.k.F.W s.A.r.x.V.o.g.h.w.D.y.} h.y.Y f N.H.Z.D.F.P.{.5.q p r u u r a t ",
"y u y i y a w ( .XP.L.D.H.W.W.^ / r.c.X.3.A.a.m.g.+.M.5.d.l.F.U p.F.d.v.A.o.j.g.a.m.y.' b.N.-.k b.!.P.P.G.S.^.f.y t y p t e i y ",
"u t u u y p r =.oXP.!.U.G.U.D.S @.e.m.=.:.M.c.J.k.$.Z.e.x.b.H.R y.F.x.m.F...x.x.c.j.s.^ Z.c.9.v 3.T.K.Y.P.G.).L.j e u s r r u u ",
"i r i u u p y t./.D.T.Y.J.T.c.S <.8.b.<.:.m.c.Z.z.$.A.i.v.x.D.W i.D.v.M.K.} b.N.n.d.k.) H.g.t.S =.^.H.S.V.B.^.{.B q u s e u u u ",
"i w p u u p i c.|.E.K.L.H.T.0.Z 8.t.j.%.3.A.h.z.x.O.B.u.z.a.B.Q f.Z.z.n.I.[ b.C.v.k.z.[ F.z.a.Q H L.H.K.L.G.W.{.K q u s e p u y ",
"i w a u u i i V.}.Q.A.L.R.(.2.A ,.g.z. .2.S.g.V.b.o.N.u.k.t.m./ z.V.h.c.Y.] v.V.m.B.k.{ m.v.p._ Z T.K.K.J.G.Y.{.T q u s w s u y ",
"u p 9 g 9 y Y 3.m.e.3.5.5.a.} ! >.8.b.$.<.A.u.N.z._ B.y.a.i.J.Y u.S.v.n.H.X.a.M.x.M.l.' F.l.x.' l ;.,.>.;.5.6.y.^ s 3 d u 6 f i ",
"0 g t u y ..J.}.H.F.P.H.m.V.e.+.e.i.g.} O.d.r.B.a.{ k.w.r.y.n.( e.b.d.f.n.@.q.h.j.z.i.| z.p.u.! X.S.F.A.B.S.C.H.).t.x g a e a 9 ",
"t k i 0 8 4.@X#XOX.XoX}.].].L.X.h.G.I.l.h.l.r.f.f.3.j.i.t.g.x.4.h.B.x.b.F.k.m.G.J.K.c.9.s.y.7.W r.|..X X[. X[.XX:X!.l 9 y i d t ",
"t u y p r q.*X}.[./.Q.I.~._.R.Y @.d.b.M.H.J.U./.P.H.P.D.m.L.P.Q.P.R.H.J.R.T.K.Y.S.T.K.K.m.h.3.R 3.~.~.W.T.!.R.^..X$Xm w i u y u ",
"t t u s e e.-X).W.~.(.R.!.(.~.) o.f.v.Z.K.C.Z.D.L.K.K.m.h.C.H._.R.T.D.A.A.C.b.z.w.m.H.W.D.k.>.K t.].).W.U.Q.T.~._.#XN w p y r i ",
"u f a w 5 r.1X[.'.).(.W.^.].D.Q  .i.x.m.S.m.x.c.N.k.C.i.y.f.N.M.S.F.C.S.H.N.H.V.j.N.m.d.l.9.=.J r.`.^.E.Y.^.!.`.@X[.n 7 p p y u ",
"e i u p r 8.%XXX%X[.~.W./.XXb.| w.l.p.;.:.4.5.t.6.} r.+.,.;.q./ ,.5.3.0.u.#.s.8.v.k.w.` p.3.3.T 8./.~.Q.!.[.]..X>XI.S y h i r w ",
"d e 0 j 9 P t.g.u.e.e.7.,.i.../ } <.7.#.2.f.s.b.k.#.V.q.b.f.N.W l.n.k.l.j.` y.:.X... .A b.i.p.! I t.r.w.w.s.u.s.c.$.s 9 d t p a ",
"f u q t a p q %.d.3.7.8.>.7.Q D o.8.V.*.:.H.l.v.k.@.S.f.a.r.J.R s.S.g.p.b.+.g.a.@.@.w.#.<.,.9._ l 6.3.$.,.X.-.r.M 4 y t p t a i ",
"w i s d t r z n. XR.Y.Y.Y.(.=.V >.t.S.,.3.J.l.m.l.#.F.h.g.u.L.E k.F.h.g.N.o.p.y.( T.#XL.;.O.a.#.W W.Q.H.I.G.U. XW y p u d y i t ",
"y y i f i r j v./.~.~.P.I.'.2.F 9.u.A.1.7.J.l.B.x.%.J.l.l.s.U.Q c.D.h.c.F.+.y.t.g.P.@X}.N.X.%. .H ).~.K.D.H.K.oX_ t e r d y p u ",
"d y e p i r j v.J.L.P.Z.A.W.>.T q.e.m.<.7.G.j.Z.x.%.J.z.z.f.Y.W c.C.f.M.I.#.u.i.D.#.x.#.V.u.,.X.I [.E.L.Z.J.H.&X( w q r d t i p ",
"u u u i w e M P.XX(.E.W.`.'.;.E t.t.M.<.7.F.j.A.z.#.F.l.z.f.U.E l.B.d.N.I.O.e.y.b.0 e 8 d.u.&.{ Y E.H.U.J.P.J.&X^ u a a f w t u ",
"t y y a i t y 8.[.R.H.K.T.L.#...s.d.D.4.8.F.j.A.l.+.S.h.k.d.I.R k.C.h.m.H.| 9.w.Q.&.Y 0.W.0.;.<.R D.F.W.Y.H.S.~.G q s p a w u u ",
"u y r i f p 2 ( 0.4.:.-.,.;.C P y.g.G.3.4.D.k.Z.z.+.Z.f.h.s.I.R j.D.x.M.F. .r.u.0.^.R.D.h.-.7.,.6 o.:.1.:.$.*.@.b 5 u e y t s u ",
"w s a t r s j q.W.K.N.C.T.I.X.` 6.i.S.>.,.A.j.V.z.+.C.d.h.s.U.E h.H.m.B.G.+.d.j.;.5.5./ 9.y.s.4.W m.Y.J.G.H.^.F.C e f e y i d w ",
"7 j 8 a s i y K.|._.!.H.G.{.z.7.g.d.j.%.,.M.l.C.g.O.J.i.h.y.V.R l.M.N.l.c...t.h.e.r.4.I b.x.t.=.U ~.'.R.J.E.).].E 0 r p h w r e ",
"a d r i 0 d l L.'.U.T.R.H.I.e.q.V.S.G.i.r.h.q.u.l.:.b.6.e.e.n.=.h.k.h.f.B.e.n.C.R.Z.f.X.c.k.i.=.E R.R.H.F.L.Q.XX .w p e a e s d ",
"p 0 p a 5 a f m.'.K.P.E.L.L.7.5.B.K.U.K.P.I.U.(.P.Z.Y.A.K.L.U.I.E.J.B.V.Q.E.W.E.K.I.).D.M.0.7.#.P L.L.K.I.F.H.}.' , g q p r a y ",
"y 6 s i 0 i i N.{.T.L.K.P._.t.%.s.n.n.D.J.N.Z.J.U.E.R.U.Q.~.L.}.R.D.j.k.S.U.Z.N.x.f.D.!.Q.V.g.{ K Y.T.I.U.F.G.{./ - x e p w u e ",
"a y a w y t p F.`.I.G.S.F.~.q.O.0.h.z.F.E.L.L.P.J.F.Z.M.B.G.C.W.K.G.l.c.F.L.H.D.k.b.K.K.z.0.g.:.G U.T.D.Z.D.P.[.~ 4 l r u e p p ",
"e p s r p e d r._.P.U.T.J.P.7.<.z.b.h.w.r.u.q.q.q.*.e.5.4.q.e.$.r.f.7.e.f.7.g.d.F.N.r.1.g.p.j.[ S F.E.Y.G.L.Y.T.D 7 q r s y u t ",
"9 r a i u m  .7.h.p.h.f.r.a.` R <.8.e.O.-.k.j.n.i.| m.a.i.f.B.U 9.l.q.i.g.{ u.e.:.j.w.X.z.d.N.;.x 7.p.k.t.y.i.6.o.K 6 t f p r q ",
"d r y t e | (.U.A.J.I.N.m.Q.8./ ` ,.k.<.9.H.b.M.V.} H.a.i.x.(.P h.L.v.Z.J.X.M.z.r.J.a.] D.x.z.) 8.D.N.D.l.n.J.C.'.l.d y y u p d ",
"u h 8 p t f.*XoX@X|.oXOX{.`._.I { c.K.4.q.F.M.C.b.;.H.M.k.k.U.~ j.F.V.Z.A.o.z.M.h.E.x.' K.M.e.( g.#X(.Q. X`.oXXX&X!.V f w i t p ",
"e g e i 3 7.XX[.`.!.!.~.^.'.{.( ` a.G.3.9.A.g.x.n.%.F.c.h.d.Y.! k.S.n.Z.I.#.B.B.b.J.b.o.L.c.i./ q./.U.R.[.W.(./.oX~.x 0 w s a r ",
"0 u t d 7 e.:XoX_.(./.(.`..X(.~ ..p.Y.0.t.Y.z.m.V.+.D.z.z.s.E.Q j.Z.l.V.W...Z.b.S.D.m.@.U.l.d.^ 7.Y.I.E.].W.^.(.%XOXB e i i a 8 ",
"s u r p 9 9.%X).).`.^.^._.XXY.) &.s.Y.4.8.Q.M.C.S.O.A.x.N.h.T.Y z.J.M.F.!.' C.b.G.I.m. .!.M.l.} u.).'./.).~._.`.'._.z 9 a 0 s u ",
"p t t p y 8.,X-XoX+X].'. X=X^.7.h.J.].r.t.{.!.R.K.>.G.C.I.M.Y.^ B.(.R.~._.#.K.K.J.].C.X..X!.G.q.f. X;X|.'.{. X].,X/.x e k 8 i i ",
"q t i p t ..^.OX#X;X@X$X@XOXZ.7.x.D.L.8.5.G.H.V.z.*.k.g.m.d.c.^ w.B.n.M.m...j.c.a.F.u.` I.F.m.r.p.).:X$X@X;X;X#X*Xn.g r c t u r ",
"u a u e 4 p Q ` ` ..'  .' ~ f t f j f e 7 i l s j 8 j f j p l < 8 j p d s 2 i d i k t 1 n l v u N E o.+.#.-.&.&. .C 2 5 a i s a ",
"r t w p f e t 5 q e , 6 8 i 4 j y w 7 h a 7 a y i e a y w q d p t f w t u a t t d q y g y 7 g 0 w 4 8 0 0 7 1 7 0 5 a g p r r t "
};
