/* XPM */
static char *f2736c10776545ddd68df27bd7187963njcdZ4vNcF3zAB9M[] = {
/* columns rows colors chars-per-pixel */
"64 64 245 2 ",
"   c #180A02",
".  c #1D1409",
"X  c #1C1917",
"o  c #241303",
"O  c #2D1502",
"+  c #23150B",
"@  c #2C1B0C",
"#  c #29190B",
"$  c #331501",
"%  c #3D1600",
"&  c #351B03",
"*  c #3C1C01",
"=  c #331D0B",
"-  c #3A1D0A",
";  c #251B13",
":  c #2A1D13",
">  c #271C18",
",  c #331E12",
"<  c #311E18",
"1  c #35210E",
"2  c #3D230C",
"3  c #3E2105",
"4  c #2C2016",
"5  c #2D241B",
"6  c #28241E",
"7  c #352313",
"8  c #3A2513",
"9  c #32251B",
"0  c #34291D",
"q  c #3C2919",
"w  c #282727",
"e  c #342B23",
"r  c #382B27",
"t  c #36322B",
"y  c #3C332B",
"u  c #3B3123",
"i  c #2B3339",
"p  c #393737",
"a  c #283032",
"s  c #1C2527",
"d  c #431D01",
"f  c #4B1D00",
"g  c #521F00",
"h  c #442203",
"j  c #4C2401",
"k  c #4D2A03",
"l  c #43240B",
"z  c #4B2509",
"x  c #45290E",
"c  c #4C2A0C",
"v  c #532400",
"b  c #592500",
"n  c #532B03",
"m  c #5B2B02",
"M  c #532D0B",
"N  c #5A2E0A",
"B  c #543006",
"V  c #5C3104",
"C  c #55310C",
"Z  c #5B320B",
"A  c #5B390D",
"S  c #442612",
"D  c #432A14",
"F  c #4B2C13",
"G  c #442D1A",
"H  c #482B16",
"J  c #522E12",
"K  c #4D331C",
"L  c #47311B",
"P  c #553212",
"I  c #5B3412",
"U  c #54351C",
"Y  c #5B381A",
"T  c #4E3109",
"R  c #622D02",
"E  c #623203",
"W  c #62340B",
"Q  c #663505",
"!  c #643512",
"~  c #653915",
"^  c #4B3C2C",
"/  c #473528",
"(  c #553923",
")  c #463A34",
"_  c #473328",
"`  c #6B3F24",
"'  c #4D4237",
"]  c #534235",
"[  c #54433A",
"{  c #5B4538",
"}  c #5E432D",
"|  c #65462F",
" . c #674017",
".. c #2D3A47",
"X. c #353C45",
"o. c #3D4144",
"O. c #3C434A",
"+. c #33424D",
"@. c #3A4955",
"#. c #374958",
"$. c #444444",
"%. c #43464B",
"&. c #4B4B4B",
"*. c #494846",
"=. c #514D4C",
"-. c #584C44",
";. c #54514D",
":. c #59524A",
">. c #444B53",
",. c #4A4D52",
"<. c #444E58",
"1. c #484F59",
"2. c #534E52",
"3. c #4D5255",
"4. c #45515B",
"5. c #4C545B",
"6. c #455054",
"7. c #535354",
"8. c #595553",
"9. c #52565A",
"0. c #54595D",
"q. c #5C5B5D",
"w. c #5D5956",
"e. c #4E504F",
"r. c #645D57",
"t. c #68635C",
"y. c #746454",
"u. c #445462",
"i. c #4B5661",
"p. c #4D5964",
"a. c #4C5B6A",
"s. c #545B64",
"d. c #5A5D62",
"f. c #535E6B",
"g. c #545A63",
"h. c #615C60",
"j. c #5C6165",
"k. c #55616C",
"l. c #5B636B",
"z. c #5F686F",
"x. c #556372",
"c. c #5B6572",
"v. c #5D6A75",
"b. c #5D6B7B",
"n. c #566974",
"m. c #4F6174",
"M. c #646261",
"N. c #62656C",
"B. c #63696D",
"V. c #6B6B6D",
"C. c #6C6866",
"Z. c #756D69",
"A. c #636B74",
"S. c #6B6D73",
"D. c #626E7B",
"F. c #686F79",
"G. c #6D7176",
"H. c #65727D",
"J. c #6B747C",
"K. c #6D777C",
"L. c #727274",
"P. c #72757A",
"I. c #74797D",
"U. c #7B7B7D",
"Y. c #7A7777",
"T. c #77726D",
"R. c #84786D",
"E. c #5E7287",
"W. c #657483",
"Q. c #6B7683",
"!. c #677984",
"~. c #6C7984",
"^. c #64778A",
"/. c #6C7B8B",
"(. c #677A8B",
"). c #717781",
"_. c #737B84",
"`. c #7B7E82",
"'. c #727D8A",
"]. c #7B7F88",
"[. c #6A7E92",
"{. c #727F90",
"}. c #7D8084",
"|. c #74818C",
" X c #7B838C",
".X c #768082",
"XX c #758391",
"oX c #7B8794",
"OX c #6F808D",
"+X c #828186",
"@X c #83868B",
"#X c #85888D",
"$X c #878B92",
"%X c #8C9297",
"&X c #979799",
"*X c #95908D",
"=X c #9A9DA0",
"-X c #8C96A0",
";X c #9BA2A9",
":X c #A7A7AB",
">X c #AAACB1",
",X c #B8B8B9",
"<X c #AEB2B6",
"1X c #BCC5CC",
"2X c #C9CACB",
"3X c #DED6CC",
"4X c #CBCED3",
"5X c #CDD4D9",
"6X c #CCD1D6",
"7X c #D5D5D5",
"8X c #D4D6DA",
"9X c #D5DADD",
"0X c #DAD9D9",
"qX c #E1DACF",
"wX c #E3D3CB",
"eX c #E2DAD2",
"rX c #E3DAD5",
"tX c #D9DCE1",
"yX c #DEE2EB",
"uX c #E3E3E5",
"iX c #ECECEC",
"pX c #E5E8EB",
"aX c #F2EEEB",
"sX c #F6EEEB",
"dX c #EEF0EE",
"fX c #F3F1EE",
"gX c #FAF2ED",
"hX c #EBEFF3",
"jX c #E7EEF3",
"kX c #F1EFF2",
"lX c #F8EEF6",
"zX c #EDF1F3",
"xX c #EDF5FA",
"cX c #EDF8FA",
"vX c #F5F5F5",
"bX c #F9F5F4",
"nX c #F7F8F5",
"mX c #FBFAF5",
"MX c #F6F6F8",
"NX c #F4F6F9",
"BX c #F9F6F9",
"VX c #F5FAFC",
"CX c #FAFEFF",
"ZX c #FEFEFE",
"AX c #FCFCFC",
/* pixels */
"MXMXMXMXvXvXvXvXvXmXvXfXfXnXnXfXAXvXvXnXNXzXvXCXvXMXMXgXsXgXgXbXvXCXhXNXmXaXmXsXbXbXvXvXVXVXxXCXMXMXMXMXMXMXMXMXMXMXMXvXMXMXMXMX",
"MXMXMXMXvXvXMXvXfXvXAXmXmXmXmXmXvXnXnXvXvXZXNXzXzXvXvXmXZXAXAXAXVXCXVXMXvXZXbXmXsXAXZXvXMXNXxXVXvXMXMXMXbXMXMXMXMXMXvXvXMXMXMXMX",
"MXMXvXvXMXMXvXvXnXnXvXvXvXfXfXvXmXiXfXZXnXVXhXCXCXCXxXpXpXuXtXtXyXyXhXvXhXZXfXAXmXvXiXvXZXZXMXvXvXvXvXvXMXMXMXMXMXMXMXMXMXMXMXMX",
"MXMXvXvXMXMXvXvXvXvXvXmXZXmXmXmXfXmXvXiXMXCXjX1X;X-XoX'.~.~._._.).A._.@X%X>X2XiXvXZXAXaXaXvXMXAXvXvXvXvXMXMXMXMXMXMXMXMXMXMXMXMX",
"vXvXvXvXvXvXvXvXvXvXnXAXmXvXzXvXbXmXAXZXvX%X Xc.W.W.(./././././.'.D.J.J.A.%.B.S.&XuXZXZXfXbXgXaXMXvXvXvXMXMXMXMXvXvXvXMXMXMXMXMX",
"vXvXvXvXvXvXvXvXvXmXVXvXhXzXVXZXvXvX2X%XG.>.Q.H.W.(./.(.^.^.^.^.J.G. X'.A.X.g.4.g.`.:X7XfXmXbXmXMXvXvXvXMXMXMXMXvXvXMXMXMXMXMXMX",
"vXvXvXvXvXvXMXMXvXNXNXxXCXCXVXpX=XP.j.G.I.F.D.XX'.(.^.^.^.[.[.OX~.~._.H.p.x.|.|.W.5.O.N.&X,XrXAXvXMXvXMXvXvXvXvXvXvXMXMXMXMXMXMX",
"vXvXvXvXvXvXMXNXVXnXzXNXCXjX>XB.>.>.J.$XA.J.<.Q.Q.W.W.!././.W.H.i.l.J.D.@.OX!.b.W.oX~.5.%.M.*X,XMXMXvXvXvXvXvXvXvXvXMXMXMXMXMXMX",
"iXZXfXfXAXvXnXNXVXzXzXCX,Xs.D.J.|.x.i.k.v.l.1...)._.I._.].I.d.9.j.G.6.+.D./.W.(.W.W.Q.Q._.o.p L.%X7XZXvXNXMXVXMXMXMXvXvXvXvXvXvX",
"ZXfXaXZXvXvXNXCXNXCXxX%XO.>.k.|.D.x.W.D. XJ.G.7.$.S.C.w.t.*.y r.C.U.B.j._.|.!./.!.XXD.H.z.X.s.o.d.S.<XCXvXZXpXvXvXvXvXvXvXMXvXMX",
"mXvXvXAXvXVXzXzXVXpX_.k.%X_.p.4.u.a.~.J.}.V.M.)   ; 9 # o     # + . X t M.I.P.K.J.H.'.@.1._.oXQ.3.B.I.#XCXZXpXZXMXMXvXvXvXMXMXMX",
"iXZXMXiXVXvXnXCXxXl.D. Xk.Q.oXH...s._.}.7.p > . 7 O = & - - x & 8 @ @ # ; t ;.Y.}.l.i O.Q.v.W.'._.i l.P.I.pXZXhXvXMXvXvXvXvXMXMX",
"vXmXvXfXZXuXZXhXl.z. XQ._.XXv.~.}.M.p e   # @ 1 O l l $ M d d C l * U K & o o 0 ) ;.,.l._.a.f.a.s.A.%._.I.@XhXVXMXMXvXvXvXvXbXbX",
"AXiXmXvXVXCXNXI.A. XA.D.XX/.'.K.C.y + o 8 D 2 $ * h C j C h M C A d j k C U F K   9 Y.U.G.~.!.a.|.A.@X9.A._.=XVXMXMXvXvXvXvXbXbX",
"mXiXmXvXnXZX;Xi _.k.oXoXb.D.W._.5 = 1 & $ & c C C d I B M j  .v n j Q E n v d P ( @ ; t.}.H.XX+.Q.D.N.>.X.I.G.<XvXvXvXvXvXMXMXMX",
"mXvXvXnXVX9X>.A.4.c.4.f._. XJ.w # 2 & F $ P c M j v ! j Z f M V m v m v v m j ~ P H 8 ; w.@XQ...X.1.4.5.d.0.`.U.vXvXvXvXMXmXmXmX",
"vXiXVXvXCX XQ.XXW./.W.<.0.q.6 ; 1 * * l l U z M k k I M n j N M n v n n v v v A Z k F G + &.,.p.v.'.'.~._.s.K.G.=XZXvXvXmXvXvXZX",
"mXmXmXVXtXz.b.W./././.~.P.t . o * d h k h P k M n j Z n n j N N n j n n v v v W n V j x G ; t.B.H.!.W.Q.'.z.A.G.}.pXmXvXvXmXvXmX",
"fXmXkXZX>Xd.).'.W.W.H. XL.. 0 2 * j n m j V j m v v E m b v R m m v m m v v v Q v E f M (   r.U.'.!.W.~.J.D.j.P.V.,XZXvXvXmXmXvX",
"vXmXfXAXS.,.g.f.'.'.J.P.*.  8 O d v V V j V v m v v E m b v R m m v m n n v v Q b m f Z K 1 0 Y.~.!.!.H.p.z.,.P.S.&XZXvXvXmXmXvX",
"bXaXAXmXq.S.l.A._.'._.U.y 7 G $ h k n n j Z k n v v V n n j V m n j M M v v v E m n f P F ^   t.~././.D.4.J.5.G.U.U.vXvXvXvXvXvX",
"ZXvXZXrX$.N.X.X.f.i.d.q.+ , & $ k B M k h A n n v j Z n n j V n M j M M n k j Z v Z d c ( / . &.l.n.k.4.@.H.>.3.}.S.uXvXMXvXvXmX",
"vXvXZX7X9._.s.i. XJ.K.V.5 # - * k B M k h A v v v j Z n n j V M n j M M c n j Z v W f c U G 7 w.J.!.H.D.A. Xs.0.`.S.0XmXvXvXvXmX",
"zXZXCX6XN. XF.f.~.~. XL.t o 8 * k B C n h A v v v j Z n n j B M n j M M c n j Z v Z j M c K 8 T.J./.~.~.J.J.0.0.U.L.0XZXvXmXvXvX",
"CXxXCX5Xz.'.b./.b.x.c.S.w : 1 & k I Z M j I Z N n j ~ n I j ! N M j M P C M v W m v n Z P K D Z._.!.!.Q.J._.3.3.`.L.7XZXvXvXmXvX",
"xXxXVX6Xl.|.W.^.m.x.x.s.X ; , = l l * * * c l * d * F d l % c l l * 2 2 3 3 % k M j d * & 8 7 Z.K.W.W.~._. X0.0.`.L.7XZXvXvXmXvX",
"xXCXCX5Xc.|.OX[.m.(.'.J.a t q q ] [ { ] ] ^ [ [ ] ) [ ] ) ) [ ] ^ ^ [ ' ' ] ^ ] ^ ^ ^ ] [ *.a d.'.!./.~._. Xs.d.`.L.7XZXvXvXmXvX",
"jXCXCX6Xs.k.D.^.+.x.D.H.p ) ^ [ :.8.r.;.8.&.8.w.8.=.7.8.=.7.8.7.=.=.8.;.&.8.;.:.t.r.:.;.w.0.X.k.!.H.H.v.A.J.5.0.`.L.7XZXvXvXmXvX",
"vXmXVXuXP.g.c.b.u.x.x.k.w 5 0 ' ;.$.$.p ;.&.&.p &.$.*.&.$.&.&.&.$.$.&.*.$.&.$.*.y ) *.&.,.>.a #.a.u.p.i.i.k.o.%.`.L.7XZXvXvXmXvX",
"AXvXMXZX:XP._.W.XXXX'.G.w . o @ 9 4 4 # 5 9 5 ; 5 : 9 5 5 > e 5 4 : 0 5 5 5 4 9 0 q 9 4 X w a H./.!.'.|.'. Xs.j.`.L.7XZXvXvXmXvX",
"gXaXaXAX>XV.).J.D.W.J.G.w : @ O 3 M C z d z c c z h J l c * F l z h c c c x h J h h z c D q 7 t.K.W.!.J.J._.5.0.`.L.7XZXvXvXmXvX",
"mXmXbXAX&X,.l.x.k.x.l.d.. 4 q * j V m n j Z m n v j ! v B f Z n m v m V m n v A Z v f n I J $ -.k.a.a.i.5.k.%.3.`.L.7XZXvXvXmXvX",
"gXmXaXZX<XF. XW././._.P.e 7 - * k V n n j B M M k j Z M n j C M n n m m m n j I M B f Z M S 8 T.J./.Q.4.J._.l.0.+XL.7XZXMXvXMXvX",
"bXfXvXZX:XA./.(./.W.Q.L.9 1 - d k V v v j B M M n j Z M n j V M n v m m R n j P h C f m M U u C.$Xu.D.Q.A.A.B.,.I.L.7XMXvXMXvXMX",
"mXgXmXuX_.5.a.x.a.a.s.q.+ O * d v V m m j V m m v v E m m v m m m g m R R m j C k Z v m N P 7 8.@...i.s.g.X.i j.L.+XuXvXvXmXvXmX",
"fXvXZX2Xd.F.W.W././.).L.9 1 l j v R m m g R m m b v E m m v R m m g R Q R v j P z j f m Z c @ r.A./.c.4. XA.i P.L.&XvXvXMXAXkXmX",
"vXvXZX2Xs. XXX(./.W.J.V.: O & % v R m m g R m m b v R m m v R m m f m Q m v z K x l j n P K 0 L.~.W.Q.k.J.J.>.U.L.:XAXvXMXAXkXmX",
"VXiXZX5Xs._.D.b.W.W.J.V.9 1 l j v V m m f N N m v v W m m v m m M f m V v k H L } } | c F G 5 j.@.+.x.k.1.>.i I.S.:XZXvXvXAXvXmX",
"NXpXCXtXk.|.'./.'./._.L.9 = * % j B M n j Z M M n j Z M M j B M B h B C j F _ _ -.{ | S G u X 5.Q.x.D.H.Q.A.i P.S.=XAXvXvXmXvXmX",
"VXNXCX6X1.~.'.W././._.L.0 7 3 d k C M k h C M M k j C M M j C B T h A C h U ] ) 9 # D 2 ^ ^ t K.|.W.|.~.Q.J.O.`.L.&XAXmXaXmXvXMX",
"NXVXCX6X5.A.b.D.b.v.A.M.: = 2 d j V n v h B M v j v A k M k B B k k v m M P { [ _ G S ( } / 5 j.H.x.x.H.l.z.X.L.L.&XvXvXvXAXvXmX",
"VXzXVXpXD.f.p.x.f.f.f.d.; @ & $ k W n V j Z V V j v Z j m j V n V v m R N M ( } K U z P Y H # *.f.x.c.k.s.z.X.3.L.@XuXvXvXmXvXmX",
"VXNXVXCX%XJ.J.'.{.'._.P.e q D h j E v V f E n m v v E j m f V m V f R R b v z ( Y ` ! ! ! P L Z._./.oX'._. XN.d.U.L.7XmXMXvXvXMX",
"iXNXhXCX$XF.'.W././.J.V.> : = & j E v V f Q n m v v W j E j E m E f Q R v b j Y z M g b v h 8 Z._.H./.J.J.J.l.9.+XV.7XZXvXvXMXvX",
"mXZXnXZX$XF. XH.W./._.G.6 4 8 2 M Z j C j Y M M n j I j C h B C M j ! m v Z z U U J f Z ~ F 7 C._.W./.~.Q.J.N.9.+XL.0XZXvXvXZXvX",
"zXnXiXZX#XN.Q.W.(./.'.I.w > # O x x 3 x 2 D S l 2 2 D x x - x D S - F l d D 1 q 8 x % c F , w P.Q.'.~.~.Q._.N.3.U.L.0XZXkXMXZXvX",
"vXvXvXZX$XS.Q.'././.~.G.w e 0 7 _ _ _ r y y ) ) y _ ) ) y y y ) p r _ / / u y t t ) G _ _ p X.W.W./.x.H._._.j.0.U.L.7XZXvXMXmXvX",
"vXmXvXzXS.9.g.p.f.p.p.s.w p ' ' 8.8.M.7.q.2.r.h.2.w.7.M.7.8.;.q.d.7.=.r.w.=.9.9.q.t.-.-.M.N...#.x.u.a i.l.k.O.9.+XL.7XZXmXMXvXvX",
"vXnXZX2Xe.B.l.A.v.b.b.c.w w y ) ;.&.o.&.&.7.*.o.,.&.&.&.$.&.3.&.$.*.9.*.%.,.,.,.*.=.*.2.7.O.i n.W.!.oXQ.A.J.>.N.L.&XMXbXAXfXfXmX",
"zXzXAX8XV.$X}.'.Q.|.|.Q.w X ; 5 e u 5 e 0 t 0 5 e e e e 5 e u e 5 0 t w w r r r e r e e r w a K.|.H.~.Q.J._.5.L.L.%XvXvXmXbXgXmX",
"CXnXZX2X3.B.j.l.v.b.c.k.X ; + @ - z l z * z h h d d z h * * z h h * l x 2 l - c d z % d x 1 7 t..XH.Q.Q.~._.0.G.L.%XvXvXbXbXbXvX",
"vXvXZX4X3.B.c.W.a.f.f.d.> > , 2 k Z m V v m m m v v W m m v m m m v N Z N n v ! m m g n P P x y.G.!.OXQ.J.~.5.N.P.%XMXvXMXbXmXvX",
"vXiXCX9XA. XQ.W.x.W._.P.r < = d v V m m v V m m v v W m m v m m m v N Z m v j W v m v m M c F R._.!.!.|.'._.s.P.P.$XmXmXvXvXmXvX",
"ZXMXZX4X5.l.u.u.E.c.s.q.> , - % v m n n j Z N n v f Z n m f N m N f n N M j j W v m j M J x 1 r.I.a.@.v.Q.A.>.F.I.#XvXVXNXvXnXvX",
"AXMXZX4X>.s.a.b.E.f.>.&.; - d d c I M M j I C M M j I M I j I M J z J P C k k A B M h F ( G : =.l.u.+.p.l.s.O.5._._.pXnXnXzXnXvX",
"MXiXVX9XA.oX/.XX/.XX XU.r - % f j I M M f M M M n f Z j Z f Z M M z M M c k k Z k n h c H G u T.J.XX~.~.'.|.k.s._.G.9XNXVXxXnXvX",
"vXMXZX4Xg.|.(.W.W.W.).L.< - d f v W v m f W m m v v W j E f m m m g m m n v j E v V j V c K G Z.K.H.Q.J.~.J.s.g.I.G.tXCXNXnXzXzX",
"ZXMXZX9Xj._.Q.(.(.~.J.S.9 = % % v E b m f E m m b v E v E g R m m g m R m v v Q b m f W Z J & -.B.k.k.g.l.z.5.3.}.P.0XVXzXvXnXCX",
"vXiXnX8Xj._._._.H.Q._.L.e 7 2 z j m v m f E m m v v V v m j m m b g m m n v v R m m f n M F 2 r.I.J.J.J._.I.d.9.`.G.8XZXvXvXnXnX",
"vXVXZX7XN.`.].N.F._.].L.e # O - c I M P k I C C M M I M I k P Z Z n P P P M n I B B n P F K ^ R.}..X X_.}.I.j.d.`.L.8XZXAXvXvXiX",
"VXCXnX2Xq.d.7.i 5.s.l.9.w ; : 7 = 8 7 7 = 8 1 7 1 1 8 1 8 1 8 1 2 = 8 7 7 7 = q - - 2 G 7 : ; *.5.5.5.>.,.7.&.7.U.Y.2XvXvXvXAXmX",
"NXnXCXAX7X7X0X8X8X8X9XtX7X0XeXwX3XeXeXqX3XeXqX3X3XqXeX3XeX3XqXqXqX3XeXeXrXrX3XrXrXwXwXeXrX0X2X9X5X5X9X6X8X0X7XuXkXuXZXZXAXvXvXvX",
"zXNXdXAXmXmXMXZXZXVXVXVXZXZXAXbXmXAXAXAXmXmXAXmXAXAXAXAXmXAXAXmXmXmXAXAXZXZXBXAXAXmXmXbXAXZXCXCXNXVXCXCXZXZXvXAXvXfXMXiXMXvXvXAX",
"xXCXdXfXbXmXfXfXvXvXVXNXMXvXMXmXvXvXnXvXvXvXvXvXvXvXvXnXvXnXvXvXbXfXvXvXNXVXkXBXlXbXAXvXvXVXcXxXVXNXvXzXMXVXvXAXbXZXAXiXAXmXfXfX"
};
